<svg width="96" height="96" viewBox="0 0 96 96" fill="none" xmlns="http://www.w3.org/2000/svg">
  <g clip-path="url(#clip0)">
    <path d="M94.652 48.345C94.652 74.509 73.771 95.716 48.013 95.716C22.259 95.716 1.37598 74.509 1.37598 48.345C1.37598 22.19 22.258 0.981995 48.013 0.981995C73.771 0.981995 94.652 22.189 94.652 48.345Z" fill="#C5E9F6" />
    <path d="M88.2268 74.432C88.2268 74.432 92.1738 65.895 92.5788 62.217C92.9808 58.542 93.7898 51.188 91.2248 46.019C91.2248 46.019 100.46 52.665 91.6218 35.856C82.7768 19.045 76.8378 19.827 76.8378 19.827C76.8378 19.827 84.5448 12.952 75.9168 13.761C67.2928 14.573 67.2928 14.573 67.2928 14.573C67.2928 14.573 74.2128 5.64699 64.1428 9.27299C54.0738 12.9 52.6598 17.4 52.6598 17.4C52.6598 17.4 39.6078 10.325 34.9158 10.123C30.2218 9.92199 27.5938 12.478 33.6788 15.709C33.6788 15.709 25.8888 14.611 22.1098 15.863C18.3288 17.122 14.9998 22.867 14.9998 22.867C14.9998 22.867 5.09083 31.336 1.92383 40.054C-1.23917 48.763 1.31283 55.818 8.34583 45.446C8.34583 45.446 4.20283 52.266 2.73683 55.917C0.599829 61.227 0.896829 67.02 0.896829 67.02C0.851829 71.239 5.54783 67.968 5.54783 67.968C6.54283 75.457 22.3168 89.18 48.4958 88.246C74.6668 87.314 84.3118 72.494 84.3118 72.494C84.3118 72.494 84.2928 79.48 88.2268 74.432Z" fill="white" />
    <path d="M32.0508 87.404C17.1138 84.098 6.76481 75.45 5.13281 68.912C4.32081 69.369 2.99881 69.951 1.93381 69.715C1.18181 69.548 0.294811 68.944 0.312811 67.018C0.303811 66.813 0.0368114 61.065 2.19381 55.705C2.80081 54.184 3.85081 52.168 4.87781 50.297C3.86581 51.046 2.95081 51.33 2.14281 51.151C1.51081 51.01 0.985811 50.581 0.623811 49.907C-0.428189 47.955 -0.133189 44.01 1.37681 39.853C4.44681 31.402 13.5498 23.348 14.5468 22.479C15.0048 21.71 18.1998 16.537 21.9308 15.302C24.4508 14.465 28.5828 14.624 31.2428 14.845C29.6038 13.538 29.4058 12.451 29.6158 11.693C30.0028 10.261 32.0928 9.41097 34.9398 9.53597C35.3898 9.55097 35.9178 9.62797 36.5108 9.75997C41.3708 10.836 50.1128 15.376 52.3958 16.588C53.1718 15.163 55.8198 11.643 63.9498 8.71697C66.1168 7.93697 67.6698 7.66797 68.6868 7.89397C69.5788 8.09097 69.9308 8.62297 70.0778 9.03997C70.5578 10.414 69.3888 12.547 68.5138 13.866L75.8668 13.178C77.0608 13.065 77.9988 13.089 78.7308 13.251C79.9828 13.528 80.3988 14.197 80.5298 14.713C80.9098 16.215 79.2558 18.235 78.1098 19.409C80.2988 20.034 85.4578 22.882 92.1338 35.578C96.6658 44.201 96.2988 46.38 95.6308 47.279C95.3408 47.669 94.7508 48.083 93.6228 47.833C93.2188 47.744 92.8118 47.587 92.4348 47.407C94.2178 52.545 93.5108 59.004 93.1538 62.28C92.7508 66.009 88.9168 74.331 88.7548 74.68C88.7358 74.721 88.7088 74.76 88.6858 74.794C87.4538 76.378 86.4528 77.022 85.5358 76.818C84.4628 76.581 84.0218 75.218 83.8468 74.062C82.6618 75.5 80.3158 77.967 76.5398 80.509C71.2918 84.036 62.1668 88.353 48.5148 88.835C42.7978 89.04 37.2588 88.557 32.0508 87.404ZM5.67581 67.391C5.71681 67.401 5.75081 67.416 5.79081 67.434C5.97081 67.516 6.09981 67.688 6.12581 67.889C6.81781 73.112 15.6178 82.553 32.3078 86.249C37.4208 87.381 42.8608 87.853 48.4788 87.654C74.0588 86.747 83.7288 72.312 83.8268 72.165C83.9668 71.95 84.2358 71.852 84.4778 71.926C84.7258 71.998 84.8938 72.229 84.8938 72.489C84.8898 73.896 85.2568 75.552 85.7878 75.669C86.0878 75.734 86.7488 75.357 87.7248 74.121C88.0828 73.35 91.6268 65.537 91.9968 62.158C92.3848 58.633 93.1868 51.304 90.7008 46.286C90.5808 46.047 90.6418 45.751 90.8418 45.573C91.0468 45.396 91.3388 45.384 91.5608 45.538C91.5758 45.547 92.8348 46.447 93.8778 46.679C94.1698 46.743 94.5518 46.775 94.6998 46.569C94.9638 46.219 95.4708 44.444 91.1028 36.137C84.3058 23.215 79.3548 20.887 77.5408 20.486C77.1218 20.393 76.8988 20.414 76.8988 20.414C76.6468 20.434 76.3988 20.294 76.3028 20.059C76.2058 19.83 76.2578 19.549 76.4508 19.385C77.8178 18.16 79.6418 15.992 79.3918 15.01C79.2428 14.415 77.9838 14.16 75.9588 14.355L67.3398 15.164C67.1068 15.185 66.8838 15.065 66.7728 14.86C66.6648 14.652 66.6868 14.402 66.8318 14.211C67.9228 12.803 69.3108 10.393 68.9778 9.44497C68.9308 9.30497 68.8158 9.14097 68.4288 9.05497C67.8858 8.93497 66.7318 8.96797 64.3278 9.83597C54.7368 13.286 53.2218 17.541 53.2098 17.584C53.1538 17.749 53.0288 17.884 52.8748 17.949C52.7078 18.013 52.5308 18.004 52.3818 17.928C52.2728 17.869 41.5958 12.105 36.2498 10.921C35.7188 10.803 35.2588 10.733 34.8798 10.715C32.4388 10.615 30.9208 11.298 30.7318 12C30.5618 12.628 31.3168 13.791 33.9448 15.185C34.1938 15.318 34.3158 15.617 34.2238 15.889C34.1358 16.165 33.8688 16.337 33.5898 16.292C33.5138 16.285 25.8868 15.233 22.2818 16.428C18.7548 17.603 15.5258 23.115 15.4938 23.163C15.4628 23.225 15.4128 23.278 15.3668 23.322C15.2678 23.406 5.53781 31.797 2.46481 40.258C0.884811 44.611 0.927811 48.015 1.64181 49.341C1.84281 49.716 2.08781 49.936 2.39281 50.004C2.83481 50.102 4.53181 50.033 7.86681 45.122C8.04381 44.86 8.39581 44.784 8.66281 44.96C8.92781 45.133 9.00681 45.487 8.83781 45.761C8.79981 45.828 4.70881 52.57 3.27281 56.143C1.22081 61.254 1.47681 66.932 1.47581 66.987C1.46281 68.399 2.00481 68.518 2.18881 68.561C3.00581 68.741 4.48181 67.997 5.21981 67.483C5.35981 67.391 5.52381 67.357 5.67581 67.391Z" fill="#080046" />
    <path d="M78.8225 57.798C79.5555 70.858 66.3525 82.305 49.3355 83.368C32.3205 84.435 17.9345 74.715 17.2055 61.661C16.4765 48.603 29.6805 37.162 46.6945 36.092C63.7115 35.03 78.0955 44.747 78.8225 57.798Z" fill="#27AAE1" />
    <path d="M40.2556 83.5049C33.8726 82.4399 28.0296 79.7479 23.8036 75.9339C19.4076 71.9559 16.9196 67.0379 16.6246 61.6979C15.8746 48.3359 29.3506 36.5899 46.6636 35.5039C49.7466 35.3099 52.8116 35.4689 55.7706 35.9619C62.1596 37.0289 68.0016 39.7179 72.2236 43.5289C76.6266 47.5049 79.1066 52.4289 79.4016 57.7689C80.1536 71.1239 66.6746 82.8739 49.3666 83.9589C46.2846 84.1569 43.2196 83.9979 40.2556 83.5049ZM55.5766 37.1249C52.6976 36.6449 49.7206 36.4969 46.7276 36.6849C30.0576 37.7299 17.0746 48.9209 17.7886 61.6249C18.3476 71.6859 27.6686 80.1989 40.4516 82.3329C43.3266 82.8139 46.3066 82.9659 49.3026 82.7799C65.9686 81.7339 78.9526 70.5439 78.2436 57.8369C77.6836 47.7759 68.3586 39.2589 55.5766 37.1249Z" fill="#130F43" />
    <path d="M41.6915 58.2749C41.5945 59.1139 40.8445 59.7129 40.0165 59.6139C39.1895 59.5149 38.5985 58.7599 38.6985 57.9209C38.7955 57.0829 39.5485 56.4809 40.3755 56.5789C41.2045 56.6759 41.7905 57.4379 41.6915 58.2749Z" fill="black" />
    <path d="M39.9217 60.4049C38.6707 60.2569 37.7687 59.0989 37.9217 57.8289C38.0697 56.5569 39.2147 55.6409 40.4687 55.7889C41.7237 55.9349 42.6207 57.0939 42.4697 58.3679C42.3207 59.6409 41.1767 60.5549 39.9217 60.4049ZM40.2797 57.3679C39.8837 57.3199 39.5247 57.6089 39.4737 58.0139C39.4277 58.4159 39.7127 58.7809 40.1077 58.8269C40.5057 58.8729 40.8657 58.5849 40.9137 58.1829C40.9607 57.7819 40.6777 57.4149 40.2797 57.3679Z" fill="black" />
    <path d="M39.8399 61.1049C38.2079 60.9119 37.0349 59.4069 37.2309 57.7479C37.4279 56.0869 38.9209 54.8959 40.5519 55.0889C42.1839 55.2809 43.3529 56.7879 43.1559 58.4489C42.9599 60.1069 41.4709 61.2969 39.8399 61.1049Z" fill="black" />
    <path d="M40.4581 55.8779C39.2541 55.7339 38.1521 56.6169 38.0081 57.8399C37.8631 59.0629 38.7271 60.1719 39.9311 60.3149C41.1341 60.4589 42.2321 59.5799 42.3781 58.3579C42.5231 57.1329 41.6611 56.0209 40.4581 55.8779Z" fill="black" />
    <path d="M39.9907 59.814C39.0597 59.706 38.3917 58.8429 38.5047 57.8979C38.6167 56.9489 39.4647 56.273 40.3977 56.382C41.3307 56.494 41.9977 57.347 41.8847 58.297C41.7737 59.245 40.9237 59.926 39.9907 59.814ZM40.3507 56.7729C39.6327 56.6889 38.9777 57.21 38.8907 57.943C38.8057 58.675 39.3187 59.339 40.0367 59.425C40.7557 59.507 41.4137 58.984 41.4997 58.252C41.5867 57.52 41.0687 56.8589 40.3507 56.7729Z" fill="black" />
    <path d="M39.8975 60.6049C38.5365 60.4429 37.5625 59.1849 37.7265 57.8059C37.8895 56.4239 39.1325 55.4309 40.4915 55.5919C41.8515 55.7539 42.8245 57.0079 42.6615 58.3879C42.4975 59.7709 41.2605 60.7679 39.8975 60.6049ZM40.2585 57.5639C39.9715 57.5309 39.7025 57.7419 39.6675 58.0369C39.5975 58.6329 40.6535 58.7499 40.7235 58.1609C40.7585 57.8669 40.5495 57.5999 40.2585 57.5639Z" fill="black" />
    <path d="M39.8147 61.2999C38.0767 61.0939 36.8287 59.4939 37.0387 57.7269C37.2477 55.9589 38.8347 54.6899 40.5747 54.8969C42.3137 55.1019 43.5567 56.7069 43.3457 58.4729C43.1367 60.2399 41.5567 61.5039 39.8147 61.2999Z" fill="black" />
    <path d="M40.3126 55.8089C38.9976 55.6749 37.8196 56.6509 37.6856 57.9849C37.5476 59.3169 38.5066 60.5079 39.8206 60.6429C41.1316 60.7759 42.3096 59.8019 42.4456 58.4699C42.5796 57.1349 41.6246 55.9409 40.3126 55.8089Z" fill="black" />
    <path d="M57.4786 58.229C57.3796 59.074 56.6306 59.67 55.8026 59.574C54.9766 59.475 54.3866 58.72 54.4866 57.877C54.5846 57.041 55.3356 56.437 56.1626 56.534C56.9876 56.632 57.5766 57.393 57.4786 58.229Z" fill="black" />
    <path d="M55.7096 60.361C54.4536 60.214 53.5566 59.058 53.7056 57.783C53.8566 56.51 54.9996 55.595 56.2556 55.741C57.5076 55.89 58.4056 57.048 58.2536 58.322C58.1036 59.596 56.9626 60.51 55.7096 60.361ZM56.0676 57.32C55.6676 57.273 55.3096 57.564 55.2606 57.966C55.2136 58.369 55.4946 58.734 55.8936 58.78C56.2906 58.828 56.6516 58.54 56.6986 58.134C56.7486 57.734 56.4656 57.369 56.0676 57.32Z" fill="black" />
    <path d="M55.6247 61.063C53.9967 60.871 52.8197 59.367 53.0197 57.705C53.2127 56.048 54.7077 54.858 56.3367 55.051C57.9707 55.245 59.1387 56.749 58.9407 58.405C58.7437 60.066 57.2587 61.256 55.6247 61.063Z" fill="black" />
    <path d="M56.2439 55.84C55.0369 55.697 53.9369 56.574 53.7959 57.794C53.6499 59.018 54.5119 60.131 55.7209 60.273C56.9199 60.415 58.0199 59.534 58.1629 58.31C58.3089 57.09 57.4449 55.982 56.2439 55.84Z" fill="black" />
    <path d="M55.7769 59.77C54.8449 59.661 54.1809 58.802 54.2919 57.854C54.4069 56.909 55.2519 56.225 56.1839 56.336C57.1179 56.445 57.7869 57.307 57.6729 58.253C57.5609 59.201 56.7109 59.88 55.7769 59.77ZM56.1389 56.727C55.4219 56.643 54.7639 57.171 54.6749 57.899C54.5889 58.628 55.1079 59.295 55.8239 59.379C56.5439 59.464 57.1999 58.938 57.2879 58.208C57.3719 57.479 56.8569 56.811 56.1389 56.727Z" fill="black" />
    <path d="M55.686 60.559C54.327 60.399 53.354 59.143 53.518 57.761C53.68 56.379 54.918 55.385 56.28 55.547C57.641 55.706 58.614 56.962 58.452 58.345C58.287 59.727 57.044 60.72 55.686 60.559ZM56.045 57.518C55.76 57.485 55.488 57.703 55.454 57.991C55.384 58.584 56.439 58.709 56.512 58.117C56.543 57.826 56.331 57.55 56.045 57.518Z" fill="black" />
    <path d="M55.6018 61.261C53.8618 61.055 52.6188 59.446 52.8288 57.68C53.0378 55.913 54.6218 54.647 56.3618 54.852C58.1018 55.057 59.3418 56.661 59.1338 58.426C58.9238 60.191 57.3458 61.466 55.6018 61.261Z" fill="black" />
    <path d="M56.0958 55.508C54.7798 55.374 53.6038 56.35 53.4678 57.682C53.3328 59.018 54.2878 60.211 55.6038 60.345C56.9158 60.479 58.0938 59.5 58.2288 58.166C58.3628 56.834 57.4078 55.641 56.0958 55.508Z" fill="black" />
    <path d="M38.5659 70.589L39.6529 64.02L42.6459 69.818" fill="white" />
    <path d="M38.4229 71.0209C38.4159 71.0189 38.4019 71.0169 38.3909 71.0149C38.0789 70.9569 37.8599 70.6499 37.9229 70.3309L39.1179 63.7719C39.1639 63.5259 39.3629 63.3309 39.6079 63.2969C39.8569 63.2619 40.0989 63.3819 40.2119 63.6129L43.1049 69.4579C43.2499 69.7519 43.1369 70.1089 42.8459 70.2549C42.5599 70.4009 42.2069 70.2839 42.0669 69.9969L39.9539 65.7159L39.0749 70.5359C39.0159 70.8499 38.7289 71.0569 38.4229 71.0209Z" fill="white" />
    <path d="M53.4229 70.0179L56.9769 63.7859L58.1709 70.8359" fill="white" />
    <path d="M58.0207 71.592C57.7687 71.563 57.5557 71.366 57.5167 71.102L56.6757 65.632L53.8527 70.407C53.6967 70.691 53.3327 70.78 53.0577 70.611C52.7827 70.445 52.6927 70.084 52.8587 69.8L56.5107 63.624C56.6377 63.41 56.8767 63.301 57.1167 63.347C57.3617 63.392 57.5457 63.59 57.5827 63.833L58.6627 70.912C58.7137 71.229 58.4977 71.536 58.1787 71.588C58.1267 71.6 58.0747 71.6 58.0207 71.592Z" fill="white" />
    <path d="M64.0917 66.223C63.9827 65.918 63.6467 65.762 63.3457 65.872C63.2247 65.914 60.4337 67.01 60.0197 70.833C58.1757 70.46 52.0507 69.291 47.5637 69.2C43.1097 69.103 38.0217 70.519 36.3837 71.013C36.0287 67.416 34.1527 66.285 32.5877 65.98C32.2677 65.92 31.9617 66.128 31.9007 66.456C31.8417 66.775 32.0477 67.087 32.3617 67.144C34.1967 67.5 35.1767 69.08 35.2697 71.836C35.3637 74.464 33.5537 75.521 33.4767 75.558C33.1957 75.713 33.0867 76.075 33.2427 76.363C33.3317 76.542 33.5117 76.65 33.6957 76.67C33.8057 76.684 33.9227 76.662 34.0287 76.602C34.1277 76.549 36.3307 75.292 36.4307 72.237C37.5517 71.886 42.9867 70.284 47.5347 70.383C52.0077 70.478 58.3647 71.708 59.9517 72.029C59.9537 73.972 60.5617 75.07 62.1187 76.116C62.2017 76.175 62.2897 76.202 62.3817 76.212C62.5937 76.233 62.8067 76.141 62.9257 75.949C63.1117 75.678 63.0367 75.31 62.7677 75.132C61.4747 74.261 60.9647 73.516 61.1507 71.168C61.4097 67.925 63.6467 67.022 63.7437 66.986C64.0437 66.868 64.2027 66.53 64.0917 66.223Z" fill="#080046" />
    <path d="M27.1681 24.177C23.4251 21.216 20.2541 16.299 19.0051 13.62C16.9071 9.10499 14.2081 9.71099 12.4841 12.337C10.2501 15.726 7.74808 25.686 17.1931 35.028L22.1641 31.831L27.1681 24.177Z" fill="#27AAE1" />
    <path d="M17.113 35.778L16.782 35.451C6.74502 25.524 9.92702 15.161 11.998 12.006C13.187 10.2 14.721 9.39398 16.206 9.80598C17.482 10.16 18.602 11.356 19.532 13.359C20.723 15.922 23.837 20.785 27.526 23.705L27.949 24.045L22.58 32.26L17.113 35.778ZM15.89 10.95C14.52 10.57 13.39 12.015 12.967 12.657C11.067 15.551 8.19902 25.012 17.276 34.277L21.744 31.402L26.388 24.3C22.724 21.234 19.67 16.435 18.479 13.872C17.702 12.214 16.813 11.206 15.89 10.95Z" fill="#130F43" />
    <path d="M32.8661 21.914C30.5081 22.661 22.6761 25.809 19.8931 29.319C17.1181 32.826 20.2541 32.652 23.3751 31.33C26.4901 30.015 15.5341 33.873 11.9771 41.442" fill="white" />
    <path d="M11.8199 42.009C11.7889 42.001 11.7559 41.991 11.7229 41.974C11.4349 41.837 11.31 41.484 11.453 41.193C13.176 37.528 16.673 34.615 19.552 32.76C19.1 32.696 18.7269 32.527 18.4839 32.197C17.7079 31.143 19.009 29.494 19.437 28.947C22.434 25.168 30.655 21.995 32.694 21.35C33.005 21.252 33.326 21.424 33.423 21.734C33.516 22.047 33.344 22.383 33.0359 22.475C30.1169 23.399 22.881 26.489 20.347 29.683C19.247 31.073 19.416 31.477 19.42 31.486C19.581 31.704 20.8199 31.739 22.9669 30.868C23.1449 30.786 23.298 30.718 23.437 30.665C23.556 30.612 23.615 30.585 23.629 30.574L23.635 30.585C23.837 30.519 23.9719 30.485 24.025 30.491C24.275 30.533 24.4799 30.745 24.504 31.007C24.559 31.471 24.255 31.597 23.597 31.874C23.511 31.914 23.4149 31.953 23.3099 31.997C21.1449 33.041 14.992 36.396 12.497 41.692C12.375 41.958 12.0859 42.083 11.8199 42.009Z" fill="#130F43" />
    <path d="M71.6016 23.7599C75.1266 20.5429 77.9436 15.4149 79.0006 12.6539C80.7746 8.00292 83.5116 8.41692 85.4146 10.9159C87.8826 14.1389 91.0806 23.8969 82.3176 33.8819L77.1306 31.0439L71.6016 23.7599Z" fill="#27AAE1" />
    <path d="M76.7465 31.5L70.8115 23.684L71.2095 23.315C74.6845 20.142 77.4435 15.071 78.4525 12.431C79.2395 10.368 80.2715 9.09595 81.5195 8.65295C82.9725 8.13795 84.5585 8.83395 85.8735 10.551C88.1615 13.5529 92.0645 23.666 82.7535 34.275L82.4465 34.624L76.7465 31.5ZM79.5435 12.869C78.5355 15.509 75.8265 20.511 72.3885 23.8279L77.5215 30.5849L82.1815 33.138C90.5835 23.257 87.0565 14.021 84.9555 11.268C84.4875 10.6579 83.2595 9.29595 81.9195 9.77195C81.0175 10.091 80.2015 11.16 79.5435 12.869Z" fill="#130F43" />
    <path d="M65.7588 21.9039C68.1638 22.4829 76.1978 25.0709 79.2228 28.3769C82.2388 31.6799 79.0978 31.7269 75.8908 30.6269C72.6898 29.5349 83.8908 32.6119 87.9728 39.9109" fill="white" />
    <path d="M88.1687 40.4669C88.1977 40.4559 88.2317 40.4459 88.2617 40.4249C88.5387 40.2679 88.6387 39.9069 88.4767 39.6269C86.4987 36.0929 82.8047 33.4329 79.8047 31.7849C80.2497 31.6879 80.6097 31.4939 80.8287 31.1469C81.5267 30.0409 80.1147 28.4879 79.6477 27.9729C76.3917 24.4139 67.9677 21.8279 65.8877 21.3289C65.5727 21.2529 65.2627 21.4479 65.1887 21.7639C65.1197 22.0819 65.3137 22.4059 65.6267 22.4759C68.6027 23.1919 76.0387 25.7639 78.7917 28.7719C79.9847 30.0809 79.8467 30.4959 79.8427 30.5049C79.6977 30.7329 78.4637 30.8559 76.2607 30.1379C76.0787 30.0689 75.9207 30.0119 75.7807 29.9689C75.6577 29.9249 75.5967 29.9019 75.5827 29.8909L75.5777 29.9029C75.3717 29.8509 75.2317 29.8259 75.1817 29.8369C74.9377 29.8969 74.7457 30.1229 74.7407 30.3849C74.7197 30.8509 75.0297 30.9559 75.7077 31.1859C75.7967 31.2199 75.8957 31.2509 76.0017 31.2879C78.2347 32.1779 84.6077 35.0909 87.4717 40.1979C87.6107 40.4549 87.9067 40.5589 88.1687 40.4669Z" fill="#130F43" />
    <path d="M39.6512 61.303C37.4782 60.971 35.9822 58.931 36.3142 56.76C36.6452 54.585 38.6842 53.09 40.8572 53.425C43.0292 53.755 44.5242 55.792 44.1922 57.968C43.8602 60.139 41.8232 61.634 39.6512 61.303Z" fill="black" />
    <path d="M41.9764 56.7369C42.5353 56.7369 42.9884 56.2839 42.9884 55.7249C42.9884 55.166 42.5353 54.713 41.9764 54.713C41.4174 54.713 40.9644 55.166 40.9644 55.7249C40.9644 56.2839 41.4174 56.7369 41.9764 56.7369Z" fill="white" />
    <path d="M41.9474 58.508C42.1915 58.508 42.3894 58.3101 42.3894 58.066C42.3894 57.8219 42.1915 57.624 41.9474 57.624C41.7033 57.624 41.5054 57.8219 41.5054 58.066C41.5054 58.3101 41.7033 58.508 41.9474 58.508Z" fill="white" />
    <path d="M55.8389 61.409C53.6679 61.076 52.1699 59.037 52.5029 56.864C52.8339 54.693 54.8739 53.196 57.0459 53.529C59.2159 53.862 60.7139 55.902 60.3819 58.072C60.0499 60.242 58.0139 61.737 55.8389 61.409Z" fill="black" />
    <path d="M58.2048 56.704C58.7632 56.704 59.2158 56.2514 59.2158 55.693C59.2158 55.1346 58.7632 54.682 58.2048 54.682C57.6465 54.682 57.1938 55.1346 57.1938 55.693C57.1938 56.2514 57.6465 56.704 58.2048 56.704Z" fill="white" />
    <path d="M58.1759 58.481C58.4211 58.481 58.6199 58.2822 58.6199 58.037C58.6199 57.7918 58.4211 57.593 58.1759 57.593C57.9307 57.593 57.7319 57.7918 57.7319 58.037C57.7319 58.2822 57.9307 58.481 58.1759 58.481Z" fill="white" />
  </g>
  <defs>
    <clipPath id="clip0">
      <rect width="96" height="96" fill="white" />
    </clipPath>
  </defs>
</svg>
